<svg data-v-0dd9719b="" version="1.0" xmlns="http://www.w3.org/2000/svg"
    xmlns:xlink="http://www.w3.org/1999/xlink" width="100%" height="100%"
    viewBox="0 0 340.000000 250.000000" preserveAspectRatio="xMidYMid meet"
    color-interpolation-filters="sRGB" style="margin: auto;">
    <g data-v-0dd9719b="" fill="#5c7d82" class="pmspacesvg"

        transform="translate(45.654998779296875,97.63500022888184)"
        ><!---->
        <polyline data-gra="graph-name" stroke="#5c7d82" stroke-width="20" fill-opacity="0"
            stroke-opacity="0.5" points="0,54.72999954223633 0,0 248.69000244140625,0"></polyline>
        <polyline data-gra="graph-name" stroke="#5c7d82" stroke-width="20" fill-opacity="0"
            stroke-opacity="0.5"
            points="0,54.72999954223633 248.69000244140625,54.72999954223633 248.69000244140625,0"></polyline>
        <g mask="url(#b23f0283-881c-4f19-9886-87567bc4d09f)">
            <g>
                <rect data-gra="graph-name-bg" stroke-width="2" class="i-icon-bg" x="0" y="0"
                    width="248.69000244140625" height="54.72999954223633"></rect> <!----> <!---->
            </g>
            <g transform="translate(10,10)">
                <g data-gra="path-name" fill-rule="" class="tp-name" fill="#ffffff">
                    <g transform="scale(1)">
                        <g>
                            <path
                                d="M22.87-34.34Q24.23-34.34 25.1-33.56 25.97-32.79 25.97-31.53L25.97-31.53 25.97-2.61Q25.97-1.31 25.15-0.53 24.33 0.24 22.97 0.24L22.97 0.24Q21.62 0.24 20.79-0.53 19.97-1.31 19.97-2.61L19.97-2.61 19.97-3.82Q18.91-1.84 16.9-0.73 14.89 0.39 12.33 0.39L12.33 0.39Q9.29 0.39 6.89-1.16 4.5-2.71 3.17-5.54 1.84-8.37 1.84-12.04L1.84-12.04Q1.84-15.72 3.17-18.47 4.5-21.23 6.87-22.73 9.24-24.23 12.33-24.23L12.33-24.23Q14.89-24.23 16.88-23.16 18.86-22.1 19.92-20.17L19.92-20.17 19.92-31.63Q19.92-32.84 20.72-33.59 21.52-34.34 22.87-34.34L22.87-34.34ZM13.93-4.3Q16.83-4.3 18.4-6.29 19.97-8.27 19.97-11.94L19.97-11.94Q19.97-15.62 18.4-17.58 16.83-19.54 13.98-19.54L13.98-19.54Q11.07-19.54 9.48-17.6 7.88-15.67 7.88-12.04L7.88-12.04Q7.88-8.37 9.48-6.34 11.07-4.3 13.93-4.3L13.93-4.3ZM50.92-6.48Q51.75-6.48 52.25-5.85 52.76-5.22 52.76-4.16L52.76-4.16Q52.76-2.66 50.97-1.64L50.97-1.64Q49.33-0.73 47.25-0.17 45.17 0.39 43.28 0.39L43.28 0.39Q37.58 0.39 34.24-2.9 30.9-6.19 30.9-11.9L30.9-11.9Q30.9-15.52 32.35-18.33 33.8-21.13 36.44-22.68 39.07-24.23 42.41-24.23L42.41-24.23Q45.6-24.23 47.97-22.83 50.34-21.42 51.65-18.86 52.95-16.3 52.95-12.82L52.95-12.82Q52.95-10.74 51.12-10.74L51.12-10.74 36.85-10.74Q37.14-7.4 38.74-5.83 40.33-4.26 43.38-4.26L43.38-4.26Q44.93-4.26 46.11-4.64 47.3-5.03 48.8-5.71L48.8-5.71Q50.25-6.48 50.92-6.48L50.92-6.48ZM42.56-19.97Q40.09-19.97 38.62-18.43 37.14-16.88 36.85-13.98L36.85-13.98 47.78-13.98Q47.68-16.93 46.33-18.45 44.97-19.97 42.56-19.97L42.56-19.97ZM71.48-24.23Q74.57-24.23 76.94-22.73 79.31-21.23 80.64-18.47 81.97-15.72 81.97-12.04L81.97-12.04Q81.97-8.37 80.64-5.54 79.31-2.71 76.92-1.16 74.52 0.39 71.48 0.39L71.48 0.39Q68.91 0.39 66.91-0.73 64.9-1.84 63.84-3.82L63.84-3.82 63.84-2.61Q63.84-1.31 63.01-0.53 62.19 0.24 60.84 0.24L60.84 0.24Q59.48 0.24 58.68-0.53 57.89-1.31 57.89-2.61L57.89-2.61 57.89-31.53Q57.89-32.79 58.73-33.56 59.58-34.34 60.93-34.34L60.93-34.34Q62.29-34.34 63.11-33.61 63.93-32.88 63.93-31.63L63.93-31.63 63.93-20.21Q65-22.15 66.98-23.19 68.96-24.23 71.48-24.23L71.48-24.23ZM69.88-4.3Q72.73-4.3 74.33-6.34 75.93-8.37 75.93-12.04L75.93-12.04Q75.93-15.67 74.35-17.6 72.78-19.54 69.88-19.54L69.88-19.54Q66.98-19.54 65.41-17.58 63.84-15.62 63.84-11.94L63.84-11.94Q63.84-8.27 65.41-6.29 66.98-4.3 69.88-4.3L69.88-4.3ZM97.45 0.39Q93.92 0.39 91.23-1.11 88.55-2.61 87.1-5.37 85.65-8.12 85.65-11.8L85.65-11.8Q85.65-15.48 87.17-18.3 88.69-21.13 91.45-22.68 94.21-24.23 97.78-24.23L97.78-24.23Q99.67-24.23 101.58-23.7 103.49-23.16 104.94-22.25L104.94-22.25Q106.49-21.23 106.49-19.68L106.49-19.68Q106.49-18.62 105.98-17.97 105.47-17.31 104.65-17.31L104.65-17.31Q104.12-17.31 103.54-17.55 102.96-17.8 102.38-18.13L102.38-18.13Q101.31-18.76 100.35-19.13 99.38-19.49 98.12-19.49L98.12-19.49Q95.12-19.49 93.5-17.53 91.88-15.57 91.88-11.9L91.88-11.9Q91.88-8.27 93.5-6.31 95.12-4.35 98.12-4.35L98.12-4.35Q99.33-4.35 100.27-4.72 101.22-5.08 102.38-5.71L102.38-5.71Q103.1-6.14 103.64-6.36 104.17-6.58 104.7-6.58L104.7-6.58Q105.47-6.58 106.01-5.9 106.54-5.22 106.54-4.21L106.54-4.21Q106.54-3.39 106.17-2.78 105.81-2.18 104.99-1.69L104.99-1.69Q103.49-0.73 101.51-0.17 99.52 0.39 97.45 0.39L97.45 0.39ZM123.75-24.13Q125.01-24.23 125.74-23.6 126.46-22.97 126.46-21.71L126.46-21.71Q126.46-20.41 125.83-19.78 125.2-19.15 123.56-18.96L123.56-18.96 122.11-18.81Q119.26-18.52 117.93-16.88 116.6-15.23 116.6-12.77L116.6-12.77 116.6-2.61Q116.6-1.21 115.73-0.46 114.85 0.29 113.55 0.29L113.55 0.29Q112.24 0.29 111.4-0.46 110.55-1.21 110.55-2.61L110.55-2.61 110.55-21.33Q110.55-22.68 111.4-23.41 112.24-24.13 113.5-24.13L113.5-24.13Q114.76-24.13 115.53-23.43 116.31-22.73 116.31-21.42L116.31-21.42 116.31-19.49Q117.22-21.62 119.04-22.78 120.85-23.94 123.08-24.08L123.08-24.08 123.75-24.13ZM139.23-24.23Q144.16-24.23 146.55-21.79 148.95-19.34 148.95-14.36L148.95-14.36 148.95-2.56Q148.95-1.26 148.17-0.51 147.4 0.24 146.05 0.24L146.05 0.24Q144.79 0.24 143.99-0.53 143.19-1.31 143.19-2.56L143.19-2.56 143.19-3.63Q142.37-1.74 140.61-0.68 138.84 0.39 136.52 0.39L136.52 0.39Q134.15 0.39 132.22-0.58 130.28-1.55 129.17-3.24 128.06-4.93 128.06-7.01L128.06-7.01Q128.06-9.62 129.39-11.12 130.72-12.62 133.72-13.3 136.71-13.98 141.98-13.98L141.98-13.98 143.19-13.98 143.19-15.09Q143.19-17.46 142.18-18.55 141.16-19.63 138.89-19.63L138.89-19.63Q137.49-19.63 136.04-19.22 134.59-18.81 132.6-18.04L132.6-18.04Q131.35-17.41 130.77-17.41L130.77-17.41Q129.89-17.41 129.34-18.04 128.78-18.67 128.78-19.68L128.78-19.68Q128.78-20.5 129.19-21.11 129.6-21.71 130.57-22.25L130.57-22.25Q132.26-23.16 134.61-23.7 136.96-24.23 139.23-24.23L139.23-24.23ZM137.73-3.97Q140.15-3.97 141.67-5.59 143.19-7.21 143.19-9.77L143.19-9.77 143.19-10.78 142.32-10.78Q139.08-10.78 137.29-10.49 135.5-10.2 134.73-9.48 133.96-8.75 133.96-7.5L133.96-7.5Q133.96-5.95 135.05-4.96 136.13-3.97 137.73-3.97L137.73-3.97ZM167.04-29.6Q164.81-29.45 163.8-28.24 162.78-27.03 162.78-24.76L162.78-24.76 162.78-23.65 166.89-23.65Q169.6-23.65 169.6-21.38L169.6-21.38Q169.6-19.1 166.89-19.1L166.89-19.1 162.78-19.1 162.78-2.61Q162.78-1.21 161.93-0.48 161.09 0.24 159.78 0.24L159.78 0.24Q158.48 0.24 157.61-0.48 156.73-1.21 156.73-2.61L156.73-2.61 156.73-19.1 154.32-19.1Q151.61-19.1 151.61-21.38L151.61-21.38Q151.61-23.65 154.32-23.65L154.32-23.65 156.73-23.65 156.73-23.99Q156.73-28.53 159.13-31.12 161.52-33.71 165.87-34.05L165.87-34.05 167.13-34.14Q169.07-34.29 169.86-33.73 170.66-33.17 170.66-32.01L170.66-32.01Q170.66-29.93 168.29-29.69L168.29-29.69 167.04-29.6ZM183.38-4.21Q185.8-4.06 185.8-2.03L185.8-2.03Q185.8-0.87 184.86-0.27 183.91 0.34 182.17 0.24L182.17 0.24 180.87 0.15Q172.74-0.44 172.74-8.56L172.74-8.56 172.74-19.1 170.32-19.1Q169.02-19.1 168.32-19.68 167.62-20.26 167.62-21.38L167.62-21.38Q167.62-22.49 168.32-23.07 169.02-23.65 170.32-23.65L170.32-23.65 172.74-23.65 172.74-28.1Q172.74-29.4 173.56-30.18 174.39-30.95 175.79-30.95L175.79-30.95Q177.14-30.95 177.96-30.18 178.79-29.4 178.79-28.1L178.79-28.1 178.79-23.65 182.9-23.65Q184.2-23.65 184.9-23.07 185.61-22.49 185.61-21.38L185.61-21.38Q185.61-20.26 184.9-19.68 184.2-19.1 182.9-19.1L182.9-19.1 178.79-19.1 178.79-8.12Q178.79-4.55 182.08-4.3L182.08-4.3 183.38-4.21ZM207.66-6.48Q208.48-6.48 208.99-5.85 209.5-5.22 209.5-4.16L209.5-4.16Q209.5-2.66 207.71-1.64L207.71-1.64Q206.06-0.73 203.98-0.17 201.9 0.39 200.02 0.39L200.02 0.39Q194.31 0.39 190.97-2.9 187.64-6.19 187.64-11.9L187.64-11.9Q187.64-15.52 189.09-18.33 190.54-21.13 193.17-22.68 195.81-24.23 199.15-24.23L199.15-24.23Q202.34-24.23 204.71-22.83 207.08-21.42 208.38-18.86 209.69-16.3 209.69-12.82L209.69-12.82Q209.69-10.74 207.85-10.74L207.85-10.74 193.58-10.74Q193.88-7.4 195.47-5.83 197.07-4.26 200.11-4.26L200.11-4.26Q201.66-4.26 202.85-4.64 204.03-5.03 205.53-5.71L205.53-5.71Q206.98-6.48 207.66-6.48L207.66-6.48ZM199.29-19.97Q196.83-19.97 195.35-18.43 193.88-16.88 193.58-13.98L193.58-13.98 204.51-13.98Q204.42-16.93 203.06-18.45 201.71-19.97 199.29-19.97L199.29-19.97ZM227.82-24.13Q229.08-24.23 229.81-23.6 230.53-22.97 230.53-21.71L230.53-21.71Q230.53-20.41 229.9-19.78 229.27-19.15 227.63-18.96L227.63-18.96 226.18-18.81Q223.33-18.52 222-16.88 220.67-15.23 220.67-12.77L220.67-12.77 220.67-2.61Q220.67-1.21 219.8-0.46 218.93 0.29 217.62 0.29L217.62 0.29Q216.31 0.29 215.47-0.46 214.62-1.21 214.62-2.61L214.62-2.61 214.62-21.33Q214.62-22.68 215.47-23.41 216.31-24.13 217.57-24.13L217.57-24.13Q218.83-24.13 219.6-23.43 220.38-22.73 220.38-21.42L220.38-21.42 220.38-19.49Q221.3-21.62 223.11-22.78 224.92-23.94 227.15-24.08L227.15-24.08 227.82-24.13Z"
                                transform="translate(-1.840000033378601, 34.34000015258789)"></path>
                        </g> <!----> <!----> <!----> <!----> <!----> <!----> <!---->
                    </g>
                </g> <!---->
            </g>
        </g>
    </g>
    <defs v-gra="od"></defs>
</svg>